<?xml version="1.0" encoding="UTF-8"?>
<svg enable-background="new 0 0 214.5 80.3" version="1.1" viewBox="0 0 214.5 80.3" xml:space="preserve" xmlns="http://www.w3.org/2000/svg" width="101" height="37">
<path d="m178.7 27.9h-21.3c-0.4 0-0.7 0.1-0.9 0.4-0.3 0.3-0.4 0.6-0.4 0.9v32.3c0 0.4 0.1 0.7 0.4 0.9 0.3 0.3 0.6 0.4 0.9 0.4h4c0.4 0 0.7-0.1 0.9-0.4 0.3-0.3 0.4-0.6 0.4-0.9v-11.4h15c0.4 0 0.7-0.1 0.9-0.4 0.3-0.3 0.4-0.6 0.4-0.9v-3.5c0-0.4-0.1-0.7-0.4-0.9-0.3-0.3-0.6-0.4-0.9-0.4h-14.9v-9.7h15.9c0.4 0 0.7-0.1 0.9-0.4 0.3-0.3 0.4-0.6 0.4-0.9v-3.5c0-0.4-0.1-0.7-0.4-0.9-0.2-0.5-0.5-0.7-0.9-0.7zm35.5 0.4c-0.3-0.3-0.6-0.4-0.9-0.4h-3.4c-0.7 0-1.1 0.2-1.5 0.5l-0.7 0.8-9.5 16.5-9.5-16.5-0.7-0.8c-0.3-0.4-0.8-0.5-1.5-0.5h-3.4c-0.4 0-0.7 0.1-0.9 0.4-0.3 0.3-0.4 0.6-0.4 0.9v32.3c0 0.4 0.1 0.7 0.4 0.9 0.3 0.3 0.6 0.4 0.9 0.4h4c0.4 0 0.7-0.1 0.9-0.4 0.3-0.3 0.4-0.6 0.4-0.9v-19.5l6.5 11.2 0.7 0.8c0.3 0.3 0.7 0.4 1.1 0.4h2.6c0.4 0 0.9-0.1 1.1-0.4l0.7-0.8 6.5-11.2v19.5c0 0.4 0.1 0.7 0.4 0.9 0.3 0.3 0.6 0.4 0.9 0.4h4c0.4 0 0.7-0.1 0.9-0.4 0.3-0.3 0.4-0.6 0.4-0.9v-32.3c0.4-0.3 0.2-0.6 0-0.9zm-113.9 0.5c-2 0-3.6 1.6-3.6 3.6v31.4c0 2 1.6 3.6 3.6 3.6s3.6-1.6 3.6-3.6v-31.5c0-1.9-1.6-3.5-3.6-3.5zm10.8 7.2c-2 0-3.6 1.6-3.6 3.6v14.4c0 2 1.6 3.6 3.6 3.6s3.6-1.6 3.6-3.6v-14.4c0-2-1.6-3.6-3.6-3.6zm10.8-15.3c-2 0-3.6 1.6-3.6 3.6v44.9c0 2 1.6 3.6 3.6 3.6s3.6-1.6 3.6-3.6v-44.9c0-2-1.6-3.6-3.6-3.6zm10.8 6.3c-2 0-3.6 1.6-3.6 3.6v32.3c0 2 1.6 3.6 3.6 3.6s3.6-1.6 3.6-3.6v-32.4c0-1.9-1.7-3.5-3.6-3.5zm10.7 9c-2 0-3.6 1.6-3.6 3.6v14.4c0 2 1.6 3.6 3.6 3.6s3.6-1.6 3.6-3.6v-14.4c0-2-1.6-3.6-3.6-3.6zm-53.9 0c-2 0-3.6 1.6-3.6 3.6v14.4c0 2 1.6 3.6 3.6 3.6s3.6-1.6 3.6-3.6v-14.4c0-2-1.6-3.6-3.6-3.6z" fill="#2D2D2D"/>
<path d="m57.3 20c0.4-2.8 1.2-5.5 2.3-8.1 2.8-7.1 6.8-2.4 8.1 1.9 1.3-3.8-1.5-8.3-6.2-7.7s-7.6 12.4-7.6 12.4l-1-0.4-2.6-0.9s-2.4-7.7-9.8-11.9c-8-4-17.6-3.8-25.4 0.6 0 0 23.8-6.3 31 10.1-9.9-3.1-20.5-2.8-30.2 0.7-11.6 5.6-16.7 19.3-11.5 31.1 7.9 18.7 32.6 32.9 52.6 32.5 21.9-0.4 32.5-19.7 22.9-39.1-8-12.8-19.6-19.8-22.6-21.2z" enable-background="new    " opacity=".3"/>
<path d="m58.7 70.7c-5.7 0.6-20.8-1.8-19.7-6.5 0.8-3.3 5.2-0.6 11 1.6 3.7 1.3 7.6 2.3 11.5 2.8 4.9 0.9 3 1.6-2.8 2.1z" fill="#D8D8D8"/>
<linearGradient id="c" x1="41.796" x2="41.796" y1="1916.2" y2="1897" gradientTransform="translate(0 -1900.7)" gradientUnits="userSpaceOnUse">
	<stop stop-color="#1E1E1E" offset="0"/>
	<stop stop-color="#4D4D4D" offset="1"/>
</linearGradient>
<path d="m73.6 49.2c-4 0.4-7.9-7.2-8.9-16.9-0.3-3.1-0.3-6.3 0.2-9.5-2.7-2-5.6-3.7-8.6-5.1 0.1-1.4 0.7-4 2.3-8.2 2.8-7.2 6.8-2.4 8.1 1.9 1.3-3.9-1.6-8.3-6.2-7.7s-7.6 12.5-7.6 12.5l-1-0.4-2.6-0.9s-2.4-7.7-9.8-12c-8.1-4-17.7-3.8-25.6 0.6 0 0 23.9-6.3 31.2 10.2-9.9-3.1-20.5-2.8-30.3 0.7-11.8 5.5-17 19.4-11.8 31.3 7.9 18.8 32.8 33.1 52.9 32.7 22.1-0.4 32.8-19.8 23.1-39.3-0.7 5.7-2.7 9.8-5.4 10.1zm-42.6-30.3c4-4.1 14.4-0.5 23.1 8.1s12.5 18.9 8.5 23-14.4 0.5-23.1-8.1c-8.8-8.7-12.6-19-8.5-23z" fill="url(#c)"/>
<radialGradient id="b" cx="20.1" cy="1933.3" r="32.4" gradientTransform="translate(0 -1900.7)" gradientUnits="userSpaceOnUse">
	<stop stop-color="#4F4F4F" offset=".2"/>
	<stop stop-color="#1E1E1E" offset="1"/>
</radialGradient>
<path d="m15.4 62c9.2 8 20.4 13.4 32.4 15.6 4 0.6 8.1 0.7 12.1 0.3 5.8-0.7 11.2-3.1 15.4-7.1 3.9-3.8 6.4-8.8 7-14.2 0.7-6.1-0.5-12.3-3.4-17.8-1.8-3.2-3.8-6.3-6.1-9.2-2.4-2.8-4.6-4.4-8-7.1-3.7-2.7-7.7-4.9-12-6.6l-1-0.4-2.6-0.9s-2.6-0.9-4.2-1.2l-5.3-1.2-3.2-0.5c-5.9-0.9-11.9-0.6-17.6 0.8l-0.7 0.2c-12.8 3.9-20 17.4-16.2 30.2 0.3 0.9 0.6 1.8 1 2.6l2 4.1c2.8 4.7 6.3 8.9 10.4 12.4z" fill="url(#b)"/>
<path d="m28.7 21.3c-3.7 4.4 0.9 14.4 10.3 22.2 9.4 7.9 20 10.6 23.8 6.2 3.7-4.4-0.9-14.4-10.3-22.2-9.5-7.8-20.1-10.6-23.8-6.2z" enable-background="new    " opacity=".2"/>
<path d="m30.8 18.9c-4 4.1-0.2 14.4 8.5 23s19.1 12.2 23.1 8.1 0.2-14.4-8.5-23c-8.6-8.6-19-12.3-23.1-8.1z" enable-background="new    " fill="#cf0" opacity=".8"/>
<path d="m33.8 21.2c-3.6 3.6-0.2 12.8 7.5 20.5s17 10.9 20.6 7.2c3.6-3.6 0.2-12.8-7.5-20.5s-17-10.9-20.6-7.2z" enable-background="new    " fill="#cf0" opacity=".7"/>
<path d="m40.5 26.8c-2.7 2.7-0.2 9.4 5.6 15s12.5 8 15.1 5.3c2.7-2.7 0.2-9.4-5.6-15s-12.4-8-15.1-5.3z" fill="#cf0"/>
<ellipse transform="matrix(.7169 -.6972 .6972 .7169 -11.604 47.567)" cx="52.8" cy="38.1" rx="4.5" ry="8.5" fill="#2D2D2D"/>
<ellipse transform="matrix(.7169 -.6972 .6972 .7169 -11.604 47.567)" cx="52.8" cy="38.1" rx="3.3" ry="6.2" fill="#333"/>
<ellipse transform="matrix(.7169 -.6972 .6972 .7169 -11.284 46.87)" cx="52.1" cy="37.3" rx="2" ry="3.8" fill="#424242"/>
<path d="m58.1 72.1c-5.8 0.5-21-1.9-19.9-6.7 0.8-3.4 5.3-0.6 11.1 1.7 4.1 1.6 9.6 2.5 11.6 2.9 4.9 0.9 3 1.5-2.8 2.1z" enable-background="new    " opacity=".3"/>
<linearGradient id="a" x1="51.981" x2="51.281" y1="1966.3" y2="1968.9" gradientTransform="translate(0 -1900.7)" gradientUnits="userSpaceOnUse">
	<stop stop-color="#fff" offset="0"/>
	<stop stop-color="#D8D8D8" offset="1"/>
</linearGradient>
<path d="m58.7 71.1c-5.8 0.5-21-1.9-19.9-6.7 0.8-3.4 5.3-0.6 11.1 1.7 4.1 1.6 9.6 2.5 11.6 2.9 4.9 0.9 3 1.6-2.8 2.1z" fill="url(#a)"/>
	<path d="m76.4 34.1c-1.5-2.5-3.4-4.7-5.6-6.6-1.9-1.8-3.9-3.4-6-4.9-0.4 2.8-0.5 6-0.2 9.5 1 9.7 5 17.3 8.9 16.9 2.7-0.3 4.7-4.2 5.4-9.8v-0.4c-0.7-1.7-1.5-3.1-2.5-4.7z" enable-background="new    " fill="#cf0" opacity=".8"/>
	<path d="m76.2 33.6c-0.9-1.3-1.5-2.2-2.4-3.2l-1.9-2c-1.9-1.8-4-3.6-6.1-5.2v0.7c-0.2 2.4-0.2 4.8 0 7.2 0.8 7.5 3.8 16.3 8.3 16.3 2.1 0 3.8-4.1 4.4-9.5v-0.3l-2.3-4z" enable-background="new    " fill="#cf0" opacity=".7"/>
	<path d="m76 33.4c-0.6-1-1.3-1.9-2.1-2.8l-1.7-1.7c-1.6-1.6-3.2-3-5-4.4v0.7c-0.2 2.1-0.2 4.2 0 6.3 0.7 6.6 3 13.9 6.9 13.6 2.5-0.2 3.1-3.6 3.7-8.2v-0.3c-0.5-1.1-1.1-2.2-1.8-3.2z" fill="#cf0"/>
	<path d="m74.3 43.4c1.7-0.1 2.8-3.2 2.5-7l-0.4-2.5c-0.9-1.5-1.9-2.8-3.2-4-1.7 0.1-2.8 3.2-2.5 7 0.3 3.7 1.9 6.6 3.6 6.5z" fill="#2D2D2D"/>
	<path d="m74.1 40.7c1-0.1 1.7-2 1.5-4.2-0.1-0.9-0.3-2-0.7-2.9-0.5-1.1-1.9-1.5-2.5-0.3-0.5 1.1-0.7 2.2-0.5 3.4 0.2 2.3 1.2 4 2.2 4z" fill="#333"/>
	<path d="m74.1 39.2c0.7 0 1.1-1.2 1-2.7 0-0.6-0.2-1.3-0.4-1.8-0.3-0.7-1.2-1-1.6-0.2-0.4 0.6-0.4 1.5-0.4 2.2 0.1 1.4 0.7 2.6 1.4 2.5z" fill="#424242"/>
<ellipse transform="matrix(.7478 -.6639 .6639 .7478 -10.53 39.479)" cx="46.7" cy="33.6" rx="4.6" ry="9.6" enable-background="new    " fill="#fff" opacity=".2"/>
<path d="m73.3 29.9c-0.9 1.3-1.2 2.9-1 4.4 0.3 2.8 1.8 4.9 3.5 4.7 1-0.1 1.9-1.1 2.3-2.5-1.4-2.4-3-4.6-4.8-6.6z" enable-background="new    " fill="#fff" opacity=".1"/>
</svg>
